%TF.GenerationSoftware,KiCad,Pcbnew,7.0.9*%
%TF.CreationDate,2023-12-12T00:43:06+00:00*%
%TF.ProjectId,Robust-IO-Expander,526f6275-7374-42d4-994f-2d457870616e,V1*%
%TF.SameCoordinates,Original*%
%TF.FileFunction,Legend,Bot*%
%TF.FilePolarity,Positive*%
%FSLAX46Y46*%
G04 Gerber Fmt 4.6, Leading zero omitted, Abs format (unit mm)*
G04 Created by KiCad (PCBNEW 7.0.9) date 2023-12-12 00:43:06*
%MOMM*%
%LPD*%
G01*
G04 APERTURE LIST*
%ADD10C,0.508000*%
%ADD11C,4.500000*%
%ADD12R,1.700000X1.700000*%
%ADD13O,1.700000X1.700000*%
%ADD14C,1.600200*%
%ADD15R,2.500000X1.700000*%
%ADD16O,2.500000X1.700000*%
%ADD17C,1.397000*%
%ADD18C,1.650000*%
G04 APERTURE END LIST*
D10*
%TO.C,J11*%
X88219401Y-80772000D02*
G75*
G03*
X88219401Y-80772000I-381000J0D01*
G01*
%TO.C,J3*%
X146593500Y-80772000D02*
G75*
G03*
X146593500Y-80772000I-381000J0D01*
G01*
%TO.C,J9*%
X54786400Y-99708200D02*
G75*
G03*
X54786400Y-99708200I-381000J0D01*
G01*
%TO.C,J8*%
X206019401Y-81026000D02*
G75*
G03*
X206019401Y-81026000I-381000J0D01*
G01*
%TO.C,J10*%
X224512300Y-86601800D02*
G75*
G03*
X224512300Y-86601800I-381000J0D01*
G01*
%TD*%
%LPC*%
D11*
%TO.C,H1*%
X56642000Y-130556000D03*
%TD*%
D12*
%TO.C,J2*%
X141966000Y-86374900D03*
D13*
X139426000Y-86374900D03*
%TD*%
D14*
%TO.C,J11*%
X84582001Y-80772000D03*
X84582001Y-75772000D03*
X81082001Y-80772000D03*
X81082001Y-75772000D03*
X77582000Y-80772000D03*
X77582000Y-75772000D03*
%TD*%
D12*
%TO.C,J4*%
X83678000Y-86665000D03*
D13*
X81138000Y-86665000D03*
X78598000Y-86665000D03*
%TD*%
D11*
%TO.C,H2*%
X224028000Y-130556000D03*
%TD*%
D12*
%TO.C,J7*%
X161036000Y-121666000D03*
D13*
X163576000Y-121666000D03*
X166116000Y-121666000D03*
X168656000Y-121666000D03*
X171196000Y-121666000D03*
X173736000Y-121666000D03*
X176276000Y-121666000D03*
X178816000Y-121666000D03*
X181356000Y-121666000D03*
X183896000Y-121666000D03*
X186436000Y-121666000D03*
X188976000Y-121666000D03*
X191516000Y-121666000D03*
X194056000Y-121666000D03*
X196596000Y-121666000D03*
X199136000Y-121666000D03*
%TD*%
D14*
%TO.C,J3*%
X142946002Y-80772000D03*
X142946002Y-75772000D03*
X139445999Y-80772000D03*
X139445999Y-75772000D03*
%TD*%
D15*
%TO.C,U11*%
X218694000Y-81322500D03*
D16*
X218694000Y-83862500D03*
X218694000Y-86402500D03*
%TD*%
D17*
%TO.C,J9*%
X54405399Y-97155000D03*
X56405401Y-97155000D03*
X54405399Y-95155001D03*
X56405401Y-95155001D03*
X54405399Y-93155000D03*
X56405401Y-93155000D03*
X54405399Y-91154999D03*
X56405401Y-91154999D03*
X54405399Y-89155001D03*
X56405401Y-89155001D03*
%TD*%
D14*
%TO.C,J8*%
X202382001Y-81026000D03*
X202382001Y-76026000D03*
X198882001Y-81026000D03*
X198882001Y-76026000D03*
X195382000Y-81026000D03*
X195382000Y-76026000D03*
%TD*%
D12*
%TO.C,J1*%
X82042000Y-121666000D03*
D13*
X84582000Y-121666000D03*
X87122000Y-121666000D03*
X89662000Y-121666000D03*
X92202000Y-121666000D03*
X94742000Y-121666000D03*
X97282000Y-121666000D03*
X99822000Y-121666000D03*
X102362000Y-121666000D03*
X104902000Y-121666000D03*
X107442000Y-121666000D03*
X109982000Y-121666000D03*
X112522000Y-121666000D03*
X115062000Y-121666000D03*
X117602000Y-121666000D03*
X120142000Y-121666000D03*
%TD*%
D18*
%TO.C,J6*%
X153270000Y-128016000D03*
X156770000Y-128016000D03*
X160270000Y-128016000D03*
X163770000Y-128016000D03*
X167270000Y-128016000D03*
X170770000Y-128016000D03*
X174270000Y-128016000D03*
X177770000Y-128016000D03*
X181270000Y-128016000D03*
X184770000Y-128016000D03*
X188270000Y-128016000D03*
X191770000Y-128016000D03*
X195270000Y-128016000D03*
X198770000Y-128016000D03*
X202270000Y-128016000D03*
X205770000Y-128016000D03*
X205770000Y-133016000D03*
X202270000Y-133016000D03*
X198770000Y-133016000D03*
X195270000Y-133016000D03*
X191770000Y-133016000D03*
X188270000Y-133016000D03*
X184770000Y-133016000D03*
X181270000Y-133016000D03*
X177770000Y-133016000D03*
X174270000Y-133016000D03*
X170770000Y-133016000D03*
X167270000Y-133016000D03*
X163770000Y-133016000D03*
X160270000Y-133016000D03*
X156770000Y-133016000D03*
X153270000Y-133016000D03*
%TD*%
D11*
%TO.C,H3*%
X56642000Y-77216000D03*
%TD*%
D12*
%TO.C,J12*%
X201351000Y-86360000D03*
D13*
X198811000Y-86360000D03*
X196271000Y-86360000D03*
%TD*%
D11*
%TO.C,H4*%
X224028000Y-77470000D03*
%TD*%
D17*
%TO.C,J10*%
X224131299Y-89155000D03*
X226131301Y-89155000D03*
X224131299Y-91154999D03*
X226131301Y-91154999D03*
X224131299Y-93155000D03*
X226131301Y-93155000D03*
X224131299Y-95155001D03*
X226131301Y-95155001D03*
X224131299Y-97154999D03*
X226131301Y-97154999D03*
%TD*%
D18*
%TO.C,J5*%
X74362000Y-128016000D03*
X77862000Y-128016000D03*
X81362000Y-128016000D03*
X84862000Y-128016000D03*
X88362000Y-128016000D03*
X91862000Y-128016000D03*
X95362000Y-128016000D03*
X98862000Y-128016000D03*
X102362000Y-128016000D03*
X105862000Y-128016000D03*
X109362000Y-128016000D03*
X112862000Y-128016000D03*
X116362000Y-128016000D03*
X119862000Y-128016000D03*
X123362000Y-128016000D03*
X126862000Y-128016000D03*
X126862000Y-133016000D03*
X123362000Y-133016000D03*
X119862000Y-133016000D03*
X116362000Y-133016000D03*
X112862000Y-133016000D03*
X109362000Y-133016000D03*
X105862000Y-133016000D03*
X102362000Y-133016000D03*
X98862000Y-133016000D03*
X95362000Y-133016000D03*
X91862000Y-133016000D03*
X88362000Y-133016000D03*
X84862000Y-133016000D03*
X81362000Y-133016000D03*
X77862000Y-133016000D03*
X74362000Y-133016000D03*
%TD*%
%LPD*%
M02*
