%TF.GenerationSoftware,KiCad,Pcbnew,7.0.9*%
%TF.CreationDate,2023-12-10T13:16:36+00:00*%
%TF.ProjectId,Robust-IO-Expander,526f6275-7374-42d4-994f-2d457870616e,V1*%
%TF.SameCoordinates,Original*%
%TF.FileFunction,Soldermask,Top*%
%TF.FilePolarity,Negative*%
%FSLAX46Y46*%
G04 Gerber Fmt 4.6, Leading zero omitted, Abs format (unit mm)*
G04 Created by KiCad (PCBNEW 7.0.9) date 2023-12-10 13:16:36*
%MOMM*%
%LPD*%
G01*
G04 APERTURE LIST*
G04 Aperture macros list*
%AMRoundRect*
0 Rectangle with rounded corners*
0 $1 Rounding radius*
0 $2 $3 $4 $5 $6 $7 $8 $9 X,Y pos of 4 corners*
0 Add a 4 corners polygon primitive as box body*
4,1,4,$2,$3,$4,$5,$6,$7,$8,$9,$2,$3,0*
0 Add four circle primitives for the rounded corners*
1,1,$1+$1,$2,$3*
1,1,$1+$1,$4,$5*
1,1,$1+$1,$6,$7*
1,1,$1+$1,$8,$9*
0 Add four rect primitives between the rounded corners*
20,1,$1+$1,$2,$3,$4,$5,0*
20,1,$1+$1,$4,$5,$6,$7,0*
20,1,$1+$1,$6,$7,$8,$9,0*
20,1,$1+$1,$8,$9,$2,$3,0*%
G04 Aperture macros list end*
%ADD10RoundRect,0.237500X0.237500X-0.250000X0.237500X0.250000X-0.237500X0.250000X-0.237500X-0.250000X0*%
%ADD11RoundRect,0.237500X-0.237500X0.250000X-0.237500X-0.250000X0.237500X-0.250000X0.237500X0.250000X0*%
%ADD12C,4.500000*%
%ADD13R,1.700000X1.700000*%
%ADD14O,1.700000X1.700000*%
%ADD15R,1.780000X2.000000*%
%ADD16C,1.600200*%
%ADD17RoundRect,0.250000X0.412500X0.650000X-0.412500X0.650000X-0.412500X-0.650000X0.412500X-0.650000X0*%
%ADD18R,2.500000X1.700000*%
%ADD19O,2.500000X1.700000*%
%ADD20R,0.279400X0.508000*%
%ADD21R,0.600000X0.420000*%
%ADD22O,0.600000X0.420000*%
%ADD23C,1.397000*%
%ADD24R,1.750000X0.450000*%
%ADD25RoundRect,0.250000X-0.412500X-1.100000X0.412500X-1.100000X0.412500X1.100000X-0.412500X1.100000X0*%
%ADD26C,1.650000*%
%ADD27R,0.400000X0.650000*%
%ADD28R,2.590800X7.289800*%
G04 APERTURE END LIST*
D10*
%TO.C,R14*%
X219456000Y-101854000D03*
X219456000Y-100029000D03*
%TD*%
%TO.C,R16*%
X209296000Y-101901000D03*
X209296000Y-100076000D03*
%TD*%
D11*
%TO.C,R21*%
X119634000Y-116031000D03*
X119634000Y-117856000D03*
%TD*%
D10*
%TO.C,R9*%
X203200000Y-101750500D03*
X203200000Y-99925500D03*
%TD*%
D11*
%TO.C,R23*%
X129794000Y-116078000D03*
X129794000Y-117903000D03*
%TD*%
D10*
%TO.C,R12*%
X187960000Y-101901000D03*
X187960000Y-100076000D03*
%TD*%
%TO.C,R1*%
X160528000Y-101901000D03*
X160528000Y-100076000D03*
%TD*%
%TO.C,R13*%
X224536000Y-101901000D03*
X224536000Y-100076000D03*
%TD*%
D12*
%TO.C,H1*%
X56642000Y-130556000D03*
%TD*%
D13*
%TO.C,J2*%
X141966000Y-86374900D03*
D14*
X139426000Y-86374900D03*
%TD*%
D15*
%TO.C,U7*%
X160528000Y-104201000D03*
X157988000Y-104201000D03*
X155448000Y-104201000D03*
X152908000Y-104201000D03*
X150368000Y-104201000D03*
X147828000Y-104201000D03*
X145288000Y-104201000D03*
X142748000Y-104201000D03*
X142748000Y-113731000D03*
X145288000Y-113731000D03*
X147828000Y-113731000D03*
X150368000Y-113731000D03*
X152908000Y-113731000D03*
X155448000Y-113731000D03*
X157988000Y-113731000D03*
X160528000Y-113731000D03*
%TD*%
D10*
%TO.C,R10*%
X198120000Y-101901000D03*
X198120000Y-100076000D03*
%TD*%
D11*
%TO.C,R30*%
X82042000Y-116031000D03*
X82042000Y-117856000D03*
%TD*%
D10*
%TO.C,R2*%
X155448000Y-101901000D03*
X155448000Y-100076000D03*
%TD*%
D16*
%TO.C,J11*%
X84582001Y-80772000D03*
X84582001Y-75772000D03*
X81082001Y-80772000D03*
X81082001Y-75772000D03*
X77582000Y-80772000D03*
X77582000Y-75772000D03*
%TD*%
D11*
%TO.C,R25*%
X55626000Y-116031000D03*
X55626000Y-117856000D03*
%TD*%
D13*
%TO.C,J4*%
X83678000Y-86665000D03*
D14*
X81138000Y-86665000D03*
X78598000Y-86665000D03*
%TD*%
D11*
%TO.C,R26*%
X60706000Y-116031000D03*
X60706000Y-117856000D03*
%TD*%
D10*
%TO.C,R11*%
X193040000Y-101901000D03*
X193040000Y-100076000D03*
%TD*%
D11*
%TO.C,R31*%
X87122000Y-116031000D03*
X87122000Y-117856000D03*
%TD*%
%TO.C,R29*%
X76962000Y-116031000D03*
X76962000Y-117856000D03*
%TD*%
%TO.C,R18*%
X103378000Y-116031000D03*
X103378000Y-117856000D03*
%TD*%
D12*
%TO.C,H2*%
X224028000Y-130556000D03*
%TD*%
D10*
%TO.C,R15*%
X214376000Y-101854000D03*
X214376000Y-100029000D03*
%TD*%
D11*
%TO.C,R28*%
X70866000Y-116031000D03*
X70866000Y-117856000D03*
%TD*%
D15*
%TO.C,U5*%
X98298000Y-113670000D03*
X100838000Y-113670000D03*
X103378000Y-113670000D03*
X105918000Y-113670000D03*
X108458000Y-113670000D03*
X110998000Y-113670000D03*
X113538000Y-113670000D03*
X116078000Y-113670000D03*
X116078000Y-104140000D03*
X113538000Y-104140000D03*
X110998000Y-104140000D03*
X108458000Y-104140000D03*
X105918000Y-104140000D03*
X103378000Y-104140000D03*
X100838000Y-104140000D03*
X98298000Y-104140000D03*
%TD*%
D13*
%TO.C,J7*%
X161036000Y-121666000D03*
D14*
X163576000Y-121666000D03*
X166116000Y-121666000D03*
X168656000Y-121666000D03*
X171196000Y-121666000D03*
X173736000Y-121666000D03*
X176276000Y-121666000D03*
X178816000Y-121666000D03*
X181356000Y-121666000D03*
X183896000Y-121666000D03*
X186436000Y-121666000D03*
X188976000Y-121666000D03*
X191516000Y-121666000D03*
X194056000Y-121666000D03*
X196596000Y-121666000D03*
X199136000Y-121666000D03*
%TD*%
D11*
%TO.C,R17*%
X98298000Y-116078000D03*
X98298000Y-117903000D03*
%TD*%
D16*
%TO.C,J3*%
X142946002Y-80772000D03*
X142946002Y-75772000D03*
X139445999Y-80772000D03*
X139445999Y-75772000D03*
%TD*%
D11*
%TO.C,R33*%
X80518000Y-95404500D03*
X80518000Y-97229500D03*
%TD*%
D10*
%TO.C,R6*%
X176784000Y-102004500D03*
X176784000Y-100179500D03*
%TD*%
D17*
%TO.C,C2*%
X210350500Y-79248000D03*
X207225500Y-79248000D03*
%TD*%
D11*
%TO.C,R24*%
X134874000Y-116078000D03*
X134874000Y-117903000D03*
%TD*%
D18*
%TO.C,U11*%
X218694000Y-81322500D03*
D19*
X218694000Y-83862500D03*
X218694000Y-86402500D03*
%TD*%
D20*
%TO.C,R36*%
X200110979Y-89687400D03*
X199460993Y-89687400D03*
X198811007Y-89687400D03*
X198161021Y-89687400D03*
X198161021Y-92684600D03*
X198811007Y-92684600D03*
X199460993Y-92684600D03*
X200110979Y-92684600D03*
%TD*%
D11*
%TO.C,R27*%
X65786000Y-116031000D03*
X65786000Y-117856000D03*
%TD*%
D15*
%TO.C,U4*%
X76962000Y-113670000D03*
X79502000Y-113670000D03*
X82042000Y-113670000D03*
X84582000Y-113670000D03*
X87122000Y-113670000D03*
X89662000Y-113670000D03*
X92202000Y-113670000D03*
X94742000Y-113670000D03*
X94742000Y-104140000D03*
X92202000Y-104140000D03*
X89662000Y-104140000D03*
X87122000Y-104140000D03*
X84582000Y-104140000D03*
X82042000Y-104140000D03*
X79502000Y-104140000D03*
X76962000Y-104140000D03*
%TD*%
D21*
%TO.C,U15*%
X136332001Y-92130899D03*
D22*
X136332001Y-91480900D03*
X136332001Y-90830901D03*
X134431999Y-90830901D03*
X134431999Y-91480900D03*
X134431999Y-92130899D03*
%TD*%
D15*
%TO.C,U9*%
X203200000Y-104201000D03*
X200660000Y-104201000D03*
X198120000Y-104201000D03*
X195580000Y-104201000D03*
X193040000Y-104201000D03*
X190500000Y-104201000D03*
X187960000Y-104201000D03*
X185420000Y-104201000D03*
X185420000Y-113731000D03*
X187960000Y-113731000D03*
X190500000Y-113731000D03*
X193040000Y-113731000D03*
X195580000Y-113731000D03*
X198120000Y-113731000D03*
X200660000Y-113731000D03*
X203200000Y-113731000D03*
%TD*%
D10*
%TO.C,R5*%
X181864000Y-102004500D03*
X181864000Y-100179500D03*
%TD*%
D23*
%TO.C,J9*%
X54405399Y-97155000D03*
X56405401Y-97155000D03*
X54405399Y-95155001D03*
X56405401Y-95155001D03*
X54405399Y-93155000D03*
X56405401Y-93155000D03*
X54405399Y-91154999D03*
X56405401Y-91154999D03*
X54405399Y-89155001D03*
X56405401Y-89155001D03*
%TD*%
D11*
%TO.C,R32*%
X92202000Y-116031000D03*
X92202000Y-117856000D03*
%TD*%
%TO.C,R19*%
X108458000Y-116031000D03*
X108458000Y-117856000D03*
%TD*%
D10*
%TO.C,R7*%
X171704000Y-102004500D03*
X171704000Y-100179500D03*
%TD*%
D24*
%TO.C,U2*%
X180252000Y-85691000D03*
X180252000Y-86341000D03*
X180252000Y-86991000D03*
X180252000Y-87641000D03*
X180252000Y-88291000D03*
X180252000Y-88941000D03*
X180252000Y-89591000D03*
X180252000Y-90241000D03*
X180252000Y-90891000D03*
X180252000Y-91541000D03*
X180252000Y-92191000D03*
X180252000Y-92841000D03*
X180252000Y-93491000D03*
X180252000Y-94141000D03*
X187452000Y-94141000D03*
X187452000Y-93491000D03*
X187452000Y-92841000D03*
X187452000Y-92191000D03*
X187452000Y-91541000D03*
X187452000Y-90891000D03*
X187452000Y-90241000D03*
X187452000Y-89591000D03*
X187452000Y-88941000D03*
X187452000Y-88291000D03*
X187452000Y-87641000D03*
X187452000Y-86991000D03*
X187452000Y-86341000D03*
X187452000Y-85691000D03*
%TD*%
D16*
%TO.C,J8*%
X202382001Y-81026000D03*
X202382001Y-76026000D03*
X198882001Y-81026000D03*
X198882001Y-76026000D03*
X195382000Y-81026000D03*
X195382000Y-76026000D03*
%TD*%
D25*
%TO.C,C1*%
X207225500Y-82804000D03*
X210350500Y-82804000D03*
%TD*%
D13*
%TO.C,J1*%
X82042000Y-121666000D03*
D14*
X84582000Y-121666000D03*
X87122000Y-121666000D03*
X89662000Y-121666000D03*
X92202000Y-121666000D03*
X94742000Y-121666000D03*
X97282000Y-121666000D03*
X99822000Y-121666000D03*
X102362000Y-121666000D03*
X104902000Y-121666000D03*
X107442000Y-121666000D03*
X109982000Y-121666000D03*
X112522000Y-121666000D03*
X115062000Y-121666000D03*
X117602000Y-121666000D03*
X120142000Y-121666000D03*
%TD*%
D26*
%TO.C,J6*%
X153270000Y-128016000D03*
X156770000Y-128016000D03*
X160270000Y-128016000D03*
X163770000Y-128016000D03*
X167270000Y-128016000D03*
X170770000Y-128016000D03*
X174270000Y-128016000D03*
X177770000Y-128016000D03*
X181270000Y-128016000D03*
X184770000Y-128016000D03*
X188270000Y-128016000D03*
X191770000Y-128016000D03*
X195270000Y-128016000D03*
X198770000Y-128016000D03*
X202270000Y-128016000D03*
X205770000Y-128016000D03*
X205770000Y-133016000D03*
X202270000Y-133016000D03*
X198770000Y-133016000D03*
X195270000Y-133016000D03*
X191770000Y-133016000D03*
X188270000Y-133016000D03*
X184770000Y-133016000D03*
X181270000Y-133016000D03*
X177770000Y-133016000D03*
X174270000Y-133016000D03*
X170770000Y-133016000D03*
X167270000Y-133016000D03*
X163770000Y-133016000D03*
X160270000Y-133016000D03*
X156770000Y-133016000D03*
X153270000Y-133016000D03*
%TD*%
D12*
%TO.C,H3*%
X56642000Y-77216000D03*
%TD*%
D13*
%TO.C,J12*%
X201351000Y-86360000D03*
D14*
X198811000Y-86360000D03*
X196271000Y-86360000D03*
%TD*%
D10*
%TO.C,R8*%
X166624000Y-102004500D03*
X166624000Y-100179500D03*
%TD*%
%TO.C,R4*%
X145288000Y-101901000D03*
X145288000Y-100076000D03*
%TD*%
D11*
%TO.C,R34*%
X140462000Y-95446900D03*
X140462000Y-97271900D03*
%TD*%
D15*
%TO.C,U8*%
X181864000Y-104262000D03*
X179324000Y-104262000D03*
X176784000Y-104262000D03*
X174244000Y-104262000D03*
X171704000Y-104262000D03*
X169164000Y-104262000D03*
X166624000Y-104262000D03*
X164084000Y-104262000D03*
X164084000Y-113792000D03*
X166624000Y-113792000D03*
X169164000Y-113792000D03*
X171704000Y-113792000D03*
X174244000Y-113792000D03*
X176784000Y-113792000D03*
X179324000Y-113792000D03*
X181864000Y-113792000D03*
%TD*%
D24*
%TO.C,U1*%
X100120000Y-95665000D03*
X100120000Y-95015000D03*
X100120000Y-94365000D03*
X100120000Y-93715000D03*
X100120000Y-93065000D03*
X100120000Y-92415000D03*
X100120000Y-91765000D03*
X100120000Y-91115000D03*
X100120000Y-90465000D03*
X100120000Y-89815000D03*
X100120000Y-89165000D03*
X100120000Y-88515000D03*
X100120000Y-87865000D03*
X100120000Y-87215000D03*
X92920000Y-87215000D03*
X92920000Y-87865000D03*
X92920000Y-88515000D03*
X92920000Y-89165000D03*
X92920000Y-89815000D03*
X92920000Y-90465000D03*
X92920000Y-91115000D03*
X92920000Y-91765000D03*
X92920000Y-92415000D03*
X92920000Y-93065000D03*
X92920000Y-93715000D03*
X92920000Y-94365000D03*
X92920000Y-95015000D03*
X92920000Y-95665000D03*
%TD*%
D21*
%TO.C,U14*%
X76942001Y-92993999D03*
D22*
X76942001Y-92344000D03*
X76942001Y-91694001D03*
X75041999Y-91694001D03*
X75041999Y-92344000D03*
X75041999Y-92993999D03*
%TD*%
D15*
%TO.C,U10*%
X224536000Y-104201000D03*
X221996000Y-104201000D03*
X219456000Y-104201000D03*
X216916000Y-104201000D03*
X214376000Y-104201000D03*
X211836000Y-104201000D03*
X209296000Y-104201000D03*
X206756000Y-104201000D03*
X206756000Y-113731000D03*
X209296000Y-113731000D03*
X211836000Y-113731000D03*
X214376000Y-113731000D03*
X216916000Y-113731000D03*
X219456000Y-113731000D03*
X221996000Y-113731000D03*
X224536000Y-113731000D03*
%TD*%
%TO.C,U6*%
X119634000Y-113670000D03*
X122174000Y-113670000D03*
X124714000Y-113670000D03*
X127254000Y-113670000D03*
X129794000Y-113670000D03*
X132334000Y-113670000D03*
X134874000Y-113670000D03*
X137414000Y-113670000D03*
X137414000Y-104140000D03*
X134874000Y-104140000D03*
X132334000Y-104140000D03*
X129794000Y-104140000D03*
X127254000Y-104140000D03*
X124714000Y-104140000D03*
X122174000Y-104140000D03*
X119634000Y-104140000D03*
%TD*%
D12*
%TO.C,H4*%
X224028000Y-77470000D03*
%TD*%
D27*
%TO.C,U12*%
X81168000Y-91623000D03*
X80518000Y-91623000D03*
X79868000Y-91623000D03*
X79868000Y-93523000D03*
X80518000Y-93523000D03*
X81168000Y-93523000D03*
%TD*%
D11*
%TO.C,R22*%
X124714000Y-116031000D03*
X124714000Y-117856000D03*
%TD*%
%TO.C,R20*%
X113538000Y-116031000D03*
X113538000Y-117856000D03*
%TD*%
D28*
%TO.C,L1*%
X205168500Y-88646000D03*
X209867500Y-88646000D03*
%TD*%
D27*
%TO.C,U13*%
X141112000Y-90714900D03*
X140462000Y-90714900D03*
X139812000Y-90714900D03*
X139812000Y-92614900D03*
X140462000Y-92614900D03*
X141112000Y-92614900D03*
%TD*%
D23*
%TO.C,J10*%
X224131299Y-89155000D03*
X226131301Y-89155000D03*
X224131299Y-91154999D03*
X226131301Y-91154999D03*
X224131299Y-93155000D03*
X226131301Y-93155000D03*
X224131299Y-95155001D03*
X226131301Y-95155001D03*
X224131299Y-97154999D03*
X226131301Y-97154999D03*
%TD*%
D15*
%TO.C,U3*%
X55626000Y-113670000D03*
X58166000Y-113670000D03*
X60706000Y-113670000D03*
X63246000Y-113670000D03*
X65786000Y-113670000D03*
X68326000Y-113670000D03*
X70866000Y-113670000D03*
X73406000Y-113670000D03*
X73406000Y-104140000D03*
X70866000Y-104140000D03*
X68326000Y-104140000D03*
X65786000Y-104140000D03*
X63246000Y-104140000D03*
X60706000Y-104140000D03*
X58166000Y-104140000D03*
X55626000Y-104140000D03*
%TD*%
D10*
%TO.C,R3*%
X150368000Y-101901000D03*
X150368000Y-100076000D03*
%TD*%
D26*
%TO.C,J5*%
X74362000Y-128016000D03*
X77862000Y-128016000D03*
X81362000Y-128016000D03*
X84862000Y-128016000D03*
X88362000Y-128016000D03*
X91862000Y-128016000D03*
X95362000Y-128016000D03*
X98862000Y-128016000D03*
X102362000Y-128016000D03*
X105862000Y-128016000D03*
X109362000Y-128016000D03*
X112862000Y-128016000D03*
X116362000Y-128016000D03*
X119862000Y-128016000D03*
X123362000Y-128016000D03*
X126862000Y-128016000D03*
X126862000Y-133016000D03*
X123362000Y-133016000D03*
X119862000Y-133016000D03*
X116362000Y-133016000D03*
X112862000Y-133016000D03*
X109362000Y-133016000D03*
X105862000Y-133016000D03*
X102362000Y-133016000D03*
X98862000Y-133016000D03*
X95362000Y-133016000D03*
X91862000Y-133016000D03*
X88362000Y-133016000D03*
X84862000Y-133016000D03*
X81362000Y-133016000D03*
X77862000Y-133016000D03*
X74362000Y-133016000D03*
%TD*%
M02*
