M48
; DRILL file {KiCad 7.0.9} date Sun Dec 10 13:16:36 2023
; FORMAT={-:-/ absolute / inch / decimal}
; #@! TF.CreationDate,2023-12-10T13:16:36+00:00
; #@! TF.GenerationSoftware,Kicad,Pcbnew,7.0.9
; #@! TF.FileFunction,Plated,1,4,PTH
FMAT,2
INCH
; #@! TA.AperFunction,Plated,PTH,ViaDrill
T1C0.0157
; #@! TA.AperFunction,Plated,PTH,ComponentDrill
T2C0.0350
; #@! TA.AperFunction,Plated,PTH,ComponentDrill
T3C0.0394
; #@! TA.AperFunction,Plated,PTH,ComponentDrill
T4C0.0430
; #@! TA.AperFunction,Plated,PTH,ComponentDrill
T5C0.0433
; #@! TA.AperFunction,Plated,PTH,ComponentDrill
T6C0.0472
; #@! TA.AperFunction,Plated,PTH,ComponentDrill
T7C0.1063
%
G90
G05
T1
X2.186Y-4.706
X2.192Y-4.162
X2.29Y-4.16
X2.29Y-4.418
X2.39Y-4.162
X2.398Y-4.71
X2.49Y-4.16
X2.492Y-4.418
X2.592Y-4.162
X2.61Y-4.68
X2.69Y-4.16
X2.69Y-4.418
X2.79Y-4.162
X2.832Y-4.64
X2.89Y-4.16
X2.892Y-4.418
X2.92Y-3.64
X3.032Y-4.162
X3.0553Y-3.5066
X3.124Y-3.828
X3.128Y-4.416
X3.13Y-4.16
X3.232Y-4.162
X3.244Y-3.544
X3.3059Y-3.5859
X3.33Y-4.418
X3.354Y-3.6208
X3.432Y-4.162
X3.5117Y-3.6916
X3.534Y-4.418
X3.5887Y-3.6365
X3.628Y-4.162
X3.7183Y-3.664
X3.732Y-4.418
X3.862Y-3.494
X3.872Y-3.562
X3.872Y-4.162
X3.882Y-3.454
X3.883Y-3.6533
X3.952Y-3.396
X3.97Y-4.16
X3.97Y-4.418
X3.9966Y-3.8
X4.006Y-3.5403
X4.024Y-3.6899
X4.046Y-3.6171
X4.072Y-4.162
X4.172Y-4.418
X4.272Y-4.162
X4.368Y-4.416
X4.419Y-3.579
X4.47Y-4.162
X4.518Y-3.676
X4.57Y-4.16
X4.57Y-4.418
X4.71Y-4.162
X4.808Y-4.418
X4.81Y-4.16
X4.91Y-4.162
X5.01Y-4.16
X5.01Y-4.418
X5.11Y-4.162
X5.21Y-4.16
X5.214Y-4.418
X5.25Y-3.6
X5.31Y-4.162
X5.41Y-4.16
X5.414Y-4.418
X5.528Y-3.876
X5.53Y-3.6089
X5.62Y-4.162
X5.818Y-4.162
X6.02Y-4.162
X6.02Y-4.4119
X6.218Y-4.162
X6.22Y-4.538
X6.319Y-4.382
X6.462Y-4.162
X6.6087Y-3.6187
X6.66Y-4.164
X6.7968Y-3.5908
X6.858Y-4.164
X6.86Y-4.538
X6.874Y-3.4023
X6.886Y-4.404
X6.9023Y-3.6331
X6.9042Y-3.7902
X6.95Y-4.354
X7.014Y-3.7014
X7.0329Y-3.3694
X7.0374Y-3.6021
X7.06Y-4.164
X7.06Y-4.4167
X7.168Y-3.578
X7.1876Y-3.6807
X7.3Y-4.16
X7.302Y-4.534
X7.3202Y-3.4248
X7.4426Y-3.4045
X7.495Y-4.419
X7.502Y-4.16
X7.5215Y-3.9058
X7.5217Y-3.4524
X7.6927Y-3.7429
X7.7Y-4.16
X7.7Y-4.4134
X7.844Y-3.786
X7.896Y-4.42
X7.9Y-4.16
X7.9818Y-3.6295
X8.14Y-3.11
X8.14Y-3.14
X8.14Y-4.532
X8.142Y-4.16
X8.2077Y-3.9059
X8.29Y-3.22
X8.29Y-3.26
X8.29Y-3.3
X8.3399Y-3.5859
X8.34Y-4.414
X8.342Y-4.162
X8.3512Y-3.6493
X8.54Y-4.16
X8.54Y-4.412
X8.738Y-4.536
X8.738Y-4.662
X8.74Y-4.158
T2
X2.1419Y-3.51
X2.1419Y-3.5888
X2.1419Y-3.6675
X2.1419Y-3.7463
X2.1419Y-3.825
X2.2207Y-3.51
X2.2207Y-3.5888
X2.2207Y-3.6675
X2.2207Y-3.7463
X2.2207Y-3.825
X8.8241Y-3.51
X8.8241Y-3.5888
X8.8241Y-3.6675
X8.8241Y-3.7463
X8.8241Y-3.825
X8.9028Y-3.51
X8.9028Y-3.5888
X8.9028Y-3.6675
X8.9028Y-3.7463
X8.9028Y-3.825
T3
X3.0944Y-3.412
X3.1944Y-3.412
X3.23Y-4.79
X3.2944Y-3.412
X3.33Y-4.79
X3.43Y-4.79
X3.53Y-4.79
X3.63Y-4.79
X3.73Y-4.79
X3.83Y-4.79
X3.93Y-4.79
X4.03Y-4.79
X4.13Y-4.79
X4.23Y-4.79
X4.33Y-4.79
X4.43Y-4.79
X4.53Y-4.79
X4.63Y-4.79
X4.73Y-4.79
X5.4892Y-3.4006
X5.5892Y-3.4006
X6.34Y-4.79
X6.44Y-4.79
X6.54Y-4.79
X6.64Y-4.79
X6.74Y-4.79
X6.84Y-4.79
X6.94Y-4.79
X7.04Y-4.79
X7.14Y-4.79
X7.24Y-4.79
X7.34Y-4.79
X7.44Y-4.79
X7.54Y-4.79
X7.64Y-4.79
X7.7272Y-3.4
X7.74Y-4.79
X7.8272Y-3.4
X7.84Y-4.79
X7.9272Y-3.4
T4
X3.0544Y-2.9831
X3.0544Y-3.18
X3.1922Y-2.9831
X3.1922Y-3.18
X3.33Y-2.9831
X3.33Y-3.18
X5.49Y-2.9831
X5.49Y-3.18
X5.6278Y-2.9831
X5.6278Y-3.18
X7.6922Y-2.9931
X7.6922Y-3.19
X7.83Y-2.9931
X7.83Y-3.19
X7.9678Y-2.9931
X7.9678Y-3.19
T5
X2.9276Y-5.04
X2.9276Y-5.2369
X3.0654Y-5.04
X3.0654Y-5.2369
X3.2032Y-5.04
X3.2032Y-5.2369
X3.341Y-5.04
X3.341Y-5.2369
X3.4788Y-5.04
X3.4788Y-5.2369
X3.6166Y-5.04
X3.6166Y-5.2369
X3.7544Y-5.04
X3.7544Y-5.2369
X3.8922Y-5.04
X3.8922Y-5.2369
X4.03Y-5.04
X4.03Y-5.2369
X4.1678Y-5.04
X4.1678Y-5.2369
X4.3056Y-5.04
X4.3056Y-5.2369
X4.4434Y-5.04
X4.4434Y-5.2369
X4.5812Y-5.04
X4.5812Y-5.2369
X4.719Y-5.04
X4.719Y-5.2369
X4.8568Y-5.04
X4.8568Y-5.2369
X4.9946Y-5.04
X4.9946Y-5.2369
X6.0343Y-5.04
X6.0343Y-5.2369
X6.172Y-5.04
X6.172Y-5.2369
X6.3098Y-5.04
X6.3098Y-5.2369
X6.4476Y-5.04
X6.4476Y-5.2369
X6.5854Y-5.04
X6.5854Y-5.2369
X6.7232Y-5.04
X6.7232Y-5.2369
X6.861Y-5.04
X6.861Y-5.2369
X6.9988Y-5.04
X6.9988Y-5.2369
X7.1366Y-5.04
X7.1366Y-5.2369
X7.2744Y-5.04
X7.2744Y-5.2369
X7.4122Y-5.04
X7.4122Y-5.2369
X7.55Y-5.04
X7.55Y-5.2369
X7.6878Y-5.04
X7.6878Y-5.2369
X7.8256Y-5.04
X7.8256Y-5.2369
X7.9634Y-5.04
X7.9634Y-5.2369
X8.1012Y-5.04
X8.1012Y-5.2369
T6
X8.61Y-3.2017
X8.61Y-3.3017
X8.61Y-3.4017
T7
X2.23Y-3.04
X2.23Y-5.14
X8.82Y-3.05
X8.82Y-5.14
T0
M30
